# xmcd CD database file
#
# Track frame offsets:
#	150
#	14517
#	27467
#	39330
#	51372
#	65835
#	79075
#	100370
#	112625
#	126572
#	140665
#	155715
#	168512
#	192997
#	213165
#	226937
#	244457
#	256855
#	272772
#	286890
#
# Disc length: 3980 seconds
#
# Revision: 4
# Processed by: cddbd v1.5.2PL0 Copyright (c) Steve Scherf et al.
# Submitted via: CDex 1.51
#
DISCID=290f8a14
DTITLE=Various Artist - Just Jazz Disc 1
DYEAR=2005
DGENRE=Jazz
TTITLE0=A Monday Date
TTITLE1=At The Jazz Band Ball
TTITLE2=(Back Home Again In) Indiana
TTITLE3=The Minor Drag
TTITLE4=I've Found A New Baby
TTITLE5=Way Down Younder In New Orleans
TTITLE6=Tea For Two
TTITLE7=Believe It, Beloved
TTITLE8=The Entertainer
TTITLE9=Love Is Just Around The Corner
TTITLE10=London Cafe Blues
TTITLE11=Shanghai Shuffle
TTITLE12=Vibe Boogie
TTITLE13=It Don't Mean A Thing (IfIt Ain't Got That Swing)
TTITLE14=Malibu
TTITLE15=End Of The World
TTITLE16=Heigh Ho (Dwarves Marching Song)
TTITLE17=High Society
TTITLE18=Stampede
TTITLE19=At Sundown
EXTD=YEAR: 2005
EXTT0=
EXTT1=
EXTT2=
EXTT3=
EXTT4=
EXTT5=
EXTT6=
EXTT7=
EXTT8=
EXTT9=
EXTT10=
EXTT11=
EXTT12=
EXTT13=
EXTT14=
EXTT15=
EXTT16=
EXTT17=
EXTT18=
EXTT19=
PLAYORDER=
